{"title":"Constantine [2005][DeluxEdition]DvDRip[Eng] Xvid -{RedDragon}","uid":6650797,"size":734449964,"categoryP":"video","categoryS":"movies","magnet":"?xt=urn:btih:8b97ac0ab0b72a0ba164e8ee2c19c7acb0b40547&amp;dn=Constantine+%5B2005%5D%5BDeluxEdition%5DDvDRip%5BEng%5D+Xvid+-%7BRedDragon%7D&amp;tr=udp%3A%2F%2Ftracker.openbittorrent.com%3A80&amp;tr=udp%3A%2F%2Fopen.demonii.com%3A1337&amp;tr=udp%3A%2F%2Ftracker.coppersurfer.tk%3A6969&amp;tr=udp%3A%2F%2Fexodus.desync.com%3A6969","seeders":0,"leechers":0,"uploader":"RedDr4gon","files":10,"time":1315096144,"description":"----------------------------------------------\nConstantine .\n----------------------------------------------\n\nScreen Shots\n\n[img]http://www.pix2links.com/images/62647709968110023448.jpg[/img]\n\n[img]http://www.pix2links.com/images/04663619936645032308.jpg[/img]\n\n[img]http://www.pix2links.com/images/50476872559244111255.jpg[/img]\n\n[img]http://www.pix2links.com/images/01992703401692302115.jpg[/img]\n\n[img]http://www.pix2links.com/images/90416270552430042296.jpg[/img]\n\n[img]http://www.pix2links.com/images/89276476522364118340.jpg[/img]\n\n[img]http://www.pix2links.com/images/87777023369059417952.jpg[/img]\n\n\n----------------------------------------------- \n\n  Info.\n\nTitle         : Constantine\nFile size     :\t699 Mb\nLength        : 2 Hr 49 Sec\nGene          : Drama | Fantasy | Mystery\nImdb link     : http://www.imdb.com/title/tt0360486/\nImdb Rating   : 6.7/10\nLanguages     :\tEnglish (U.S.A)\nOverall bit rate               : 810 Kbps\nRelease Date  :\t25 February 2005 (India)\n\n\n   Video.   \n\n\nID                             : 0\nFormat                         : MPEG-4 Visual\nFormat profile                 : Simple@L3\nFormat settings, BVOP          : No\nFormat settings, QPel          : No\nFormat settings, GMC           : No warppoints\nFormat settings, Matrix        : Default (H.263)\nCodec ID                       : XVID\nCodec ID/Hint                  : XviD\nDuration                       : 2h 0mn\nBit rate                       : 669 Kbps\nWidth                          : 624 pixels\nHeight                         : 352 pixels\nDisplay aspect ratio           : 16:9\nFrame rate                     : 25.000 fps\nColor space                    : YUV\nChroma subsampling             : 4:2:0\nBit depth                      : 8 bits\nScan type                      : Progressive\nCompression mode               : Lossy\nBits/(Pixel*Frame)             : 0.122\nStream size                    : 578 MiB (83%)\nWriting library                : XviD 1.1.2 (UTC 2006-11-01)\n \n\n\n    Audio.    \n\n\nID                             : 1\nFormat                         : MPEG Audio\nFormat version                 : Version 1\nFormat profile                 : Layer 3\nMode                           : Joint stereo\nMode extension                 : MS Stereo\nCodec ID                       : 55\nCodec ID/Hint                  : MP3\nDuration                       : 2h 0mn\nBit rate mode                  : Constant\nBit rate                       : 128 Kbps\nChannel(s)                     : 2 channels\nSampling rate                  : 48.0 KHz\nCompression mode               : Lossy\nStream size                    : 111 MiB (16%)\nAlignment                      : Aligned on interleaves\nInterleave, duration           : 24 ms (0.60 video frame)\nWriting library                : LAME3.97\n\n------------------------------------------------\n\n\nSEED AFTER DOWNLAOD.\n\n\nTHANK YOU.\n\n\nENjOY..!!\n\n","torrent":{"xt":"urn:btih:8b97ac0ab0b72a0ba164e8ee2c19c7acb0b40547","amp;dn":"Constantine+%5B2005%5D%5BDeluxEdition%5DDvDRip%5BEng%5D+Xvid+-%7BRedDragon%7D","amp;tr":["udp%3A%2F%2Ftracker.openbittorrent.com%3A80","udp%3A%2F%2Fopen.demonii.com%3A1337","udp%3A%2F%2Ftracker.coppersurfer.tk%3A6969","udp%3A%2F%2Fexodus.desync.com%3A6969"],"infoHash":"8b97ac0ab0b72a0ba164e8ee2c19c7acb0b40547","infoHashBuffer":{"type":"Buffer","data":[139,151,172,10,176,183,42,11,161,100,232,238,44,25,199,172,176,180,5,71]},"announce":[],"urlList":[]}}